<svg id="Capa_1" enable-background="new 0 0 512 512" height="512" viewBox="0 0 512 512" width="512" xmlns="http://www.w3.org/2000/svg"><g id="XMLID_2704_"><g id="XMLID_2536_"><g id="XMLID_2539_"><path id="XMLID_2552_" d="m502 0h-248c-5.523 0-10 4.477-10 10v132.053l-40.746-42.937c-1.888-1.989-4.511-3.116-7.254-3.116s-5.366 1.127-7.254 3.116l-65.347 68.86c-3.801 4.006-3.636 10.336.37 14.138 1.935 1.836 4.41 2.746 6.882 2.746 2.646 0 5.29-1.045 7.255-3.116l58.094-61.217 48 50.581v146.892c0 5.522 4.477 10 10 10h87.857l-59.857 59.857-36.929-36.929c-1.875-1.874-4.419-2.928-7.071-2.928h-84c-2.652 0-5.196 1.054-7.071 2.929l-36.929 36.928-86.04-86.04 52.01-54.805c3.801-4.006 3.636-10.336-.37-14.138s-10.335-3.636-14.138.37l-58.716 61.872c-1.763 1.859-2.746 4.323-2.746 6.884v200c0 5.522 4.477 10 10 10h372c5.523 0 10-4.478 10-10v-174h110c5.523 0 10-4.478 10-10v-308c0-5.523-4.477-10-10-10zm-343.858 368h75.716l123.999 124h-323.714zm-138.142 109.857v-151.714l75.857 75.857zm352 0-75.857-75.857 73.999-74h1.858zm120-169.857h-228v-288h228z"/><path id="XMLID_2548_" d="m370.929 170.071c1.952 1.952 4.512 2.929 7.071 2.929s5.119-.977 7.071-2.929l42.73-42.73c16.751-16.752 16.751-44.008 0-60.76-13.416-13.413-33.436-16.337-49.801-7.967-16.364-8.369-36.386-5.448-49.801 7.968-16.751 16.752-16.751 44.008 0 60.76zm-28.588-89.346c4.417-4.418 10.344-6.686 16.29-6.686 4.727 0 9.466 1.434 13.467 4.359 3.516 2.568 8.288 2.568 11.804 0 9.035-6.605 21.828-5.605 29.757 2.326 8.954 8.953 8.954 23.521.001 32.475l-35.66 35.659-35.659-35.659c-8.953-8.953-8.953-23.521 0-32.474z"/><path id="XMLID_2542_" d="m309.667 222.127h136.667c5.523 0 10-4.478 10-10s-4.477-10-10-10h-136.667c-5.523 0-10 4.478-10 10s4.477 10 10 10z"/><path id="XMLID_2541_" d="m309.667 266.127h136.667c5.523 0 10-4.478 10-10 0-5.523-4.477-10-10-10h-136.667c-5.523 0-10 4.478-10 10s4.477 10 10 10z"/><path id="XMLID_2540_" d="m99.69 217.5c2.62 0 5.2-1.07 7.06-2.931 1.87-1.869 2.93-4.439 2.93-7.079 0-2.631-1.06-5.21-2.93-7.07-1.85-1.86-4.43-2.93-7.06-2.93-2.64 0-5.22 1.069-7.08 2.93-1.86 1.86-2.93 4.439-2.93 7.07 0 2.64 1.07 5.21 2.93 7.079 1.87 1.861 4.45 2.931 7.08 2.931z"/></g></g></g></svg>